<svg preserveAspectRatio="none" width="100%" height="100%" overflow="visible" style="display: block;" viewBox="0 0 32 32" fill="none" xmlns="http://www.w3.org/2000/svg">
<g id="routing-2">
<path id="Vector" d="M15.9983 26.3333H12.425C10.8783 26.3333 9.53167 25.4 8.99833 23.96C8.45167 22.52 8.85167 20.9333 10.0117 19.9067L20.665 10.5867C21.305 10.0267 21.3183 9.26667 21.1317 8.74667C20.9317 8.22667 20.425 7.66667 19.5717 7.66667H15.9983C15.4517 7.66667 14.9983 7.21333 14.9983 6.66667C14.9983 6.12 15.4517 5.66667 15.9983 5.66667H19.5717C21.1183 5.66667 22.465 6.6 22.9983 8.04C23.545 9.48 23.145 11.0667 21.985 12.0933L11.3317 21.4133C10.6917 21.9733 10.6783 22.7333 10.865 23.2533C11.065 23.7733 11.5717 24.3333 12.425 24.3333H15.9983C16.545 24.3333 16.9983 24.7867 16.9983 25.3333C16.9983 25.88 16.545 26.3333 15.9983 26.3333Z" fill="var(--fill-0, white)"/>
<path id="Vector_2" d="M26.665 20H22.665C21.1983 20 19.9983 21.2 19.9983 22.6667V26.6667C19.9983 28.1333 21.1983 29.3333 22.665 29.3333H26.665C28.1317 29.3333 29.3317 28.1333 29.3317 26.6667V22.6667C29.3317 21.2 28.1317 20 26.665 20ZM24.6783 26C23.945 26 23.345 25.4 23.345 24.6667C23.345 23.9333 23.9317 23.3333 24.6783 23.3333H24.6917C25.425 23.3333 26.025 23.9333 26.025 24.6667C26.025 25.4 25.425 26 24.6783 26Z" fill="var(--fill-0, white)"/>
<path id="Vector_3" d="M7.29167 2.66667C4.71833 2.66667 2.625 4.76 2.625 7.33333C2.625 9.90667 4.71833 12 7.29167 12C9.865 12 11.9583 9.90667 11.9583 7.33333C11.9583 4.76 9.87833 2.66667 7.29167 2.66667ZM7.345 8.66667C6.61167 8.66667 6.01167 8.06667 6.01167 7.33333C6.01167 6.6 6.59833 6 7.345 6H7.35833C8.09167 6 8.69167 6.6 8.69167 7.33333C8.69167 8.06667 8.09167 8.66667 7.345 8.66667Z" fill="var(--fill-0, white)"/>
<g id="Vector_4" opacity="0">
</g>
</g>
</svg>
