<svg preserveAspectRatio="none" width="100%" height="100%" overflow="visible" style="display: block;" viewBox="0 0 32 32" fill="none" xmlns="http://www.w3.org/2000/svg">
<g id="devices">
<g id="Vector" opacity="0">
</g>
<path id="Vector_2" d="M20.96 12.92C18.2267 10.1733 13.7733 10.1733 11.04 12.92C8.29333 15.6667 8.29333 20.1067 11.04 22.84C13.7867 25.5867 18.2267 25.5867 20.96 22.84C23.7067 20.0933 23.7067 15.6533 20.96 12.92ZM16.7067 18.5867L14.5867 20.7067C14.3867 20.9067 14.1333 21 13.88 21C13.6267 21 13.36 20.9067 13.1733 20.7067C12.7867 20.32 12.7867 19.68 13.1733 19.28L15.2933 17.16C15.68 16.7733 16.32 16.7733 16.72 17.16C17.1067 17.56 17.1067 18.2 16.7067 18.5867Z" fill="var(--fill-0, white)"/>
<path id="Vector_3" d="M26.1333 7.74667C25.84 7.45333 25.4667 7.29333 25.0533 7.29333C24.64 7.29333 24.2667 7.45333 23.9733 7.73333C23.3733 8.33333 23.3733 9.29333 23.9733 9.89333C24.2667 10.1867 24.64 10.3467 25.0533 10.3467C25.4667 10.3467 25.84 10.1867 26.1333 9.90667C26.4267 9.61333 26.5867 9.24 26.5867 8.82667C26.5867 8.41333 26.4267 8.02667 26.1333 7.74667Z" fill="var(--fill-0, white)"/>
<path id="Vector_4" d="M8.02667 25.8533C7.73333 25.56 7.36 25.4 6.94667 25.4C6.53333 25.4 6.16 25.56 5.86667 25.84C5.57333 26.1333 5.41333 26.5067 5.41333 26.92C5.41333 27.3333 5.57333 27.7067 5.86667 28C6.16 28.2933 6.56 28.44 6.94667 28.44C7.33333 28.44 7.73333 28.2933 8.02667 27.9867C8.61333 27.4133 8.61333 26.44 8.02667 25.8533Z" fill="var(--fill-0, white)"/>
<path id="Vector_5" d="M29.88 16.8C29.6 16.5067 29.2133 16.36 28.8 16.3467C28.3867 16.3467 28.0133 16.5067 27.72 16.8C27.12 17.4 27.12 18.36 27.72 18.96C28.0133 19.2533 28.4133 19.4 28.8 19.4C29.1867 19.4 29.5867 19.2533 29.88 18.96C30.48 18.36 30.48 17.3867 29.88 16.8Z" fill="var(--fill-0, white)"/>
<path id="Vector_6" d="M4.28 16.8C3.69333 16.2133 2.72 16.2 2.12 16.8C1.52 17.4 1.52 18.36 2.12 18.96C2.41333 19.2533 2.81333 19.4 3.2 19.4C3.58667 19.4 3.98667 19.2533 4.28 18.96C4.86667 18.36 4.86667 17.3867 4.28 16.8Z" fill="var(--fill-0, white)"/>
<path id="Vector_7" d="M26.1333 25.8533C25.5333 25.2533 24.5733 25.2533 23.9733 25.8533C23.3733 26.4533 23.3733 27.4133 23.9733 28.0133C24.2667 28.3067 24.6667 28.4533 25.0533 28.4533C25.44 28.4533 25.84 28.3067 26.1333 28.0133C26.4267 27.72 26.5867 27.3333 26.5867 26.9333C26.5867 26.52 26.4267 26.1333 26.1333 25.8533Z" fill="var(--fill-0, white)"/>
<path id="Vector_8" d="M8.02667 7.74667C7.73333 7.45333 7.36 7.29333 6.94667 7.29333C6.53333 7.29333 6.16 7.45333 5.86667 7.73333C5.57333 8.02667 5.41333 8.4 5.41333 8.81333C5.41333 9.22667 5.57333 9.61333 5.86667 9.89333C6.16 10.1867 6.53333 10.3467 6.94667 10.3467C7.36 10.3467 7.73333 10.1867 8.02667 9.90667C8.61333 9.30667 8.61333 8.33333 8.02667 7.74667Z" fill="var(--fill-0, white)"/>
<path id="Vector_9" d="M17.08 4C17.08 3.98667 17.08 3.98667 17.08 4C16.48 3.4 15.52 3.4 14.92 4C14.6267 4.29333 14.4667 4.68 14.4667 5.08C14.4667 5.49333 14.6267 5.86667 14.9067 6.16C15.2 6.45333 15.5733 6.61333 15.9867 6.61333C16.4 6.61333 16.7733 6.45333 17.0667 6.16C17.68 5.56 17.68 4.58667 17.08 4Z" fill="var(--fill-0, white)"/>
</g>
</svg>
