<svg preserveAspectRatio="none" width="100%" height="100%" overflow="visible" style="display: block;" viewBox="0 0 31.9406 29.703" fill="none" xmlns="http://www.w3.org/2000/svg">
<g id="Group">
<path id="Vector" d="M1.46484e-05 29.0136V28.5149C0.176265 28.2193 0.38564 27.8318 0.827515 27.8318L31.0519 27.8305C31.6281 27.8305 31.9813 28.3855 31.9369 28.8443C31.8806 29.4293 31.445 29.703 30.8625 29.703H1.07439C0.532515 29.703 0.196265 29.4861 1.46484e-05 29.0136Z" fill="var(--fill-0, white)"/>
<path id="Vector_2" d="M7.54847 8.28052C7.6116 9.68802 6.67035 10.843 5.42035 11.1561C4.06222 11.4961 2.70972 10.7824 2.17285 9.57739C1.6041 8.30177 2.05347 6.85614 3.14972 6.10989C4.30535 5.32302 5.8366 5.48364 6.81472 6.52864L9.4141 5.46302C9.33722 3.81989 10.6466 2.47677 12.2628 2.49802C13.9028 2.51989 15.2066 3.93739 15.0203 5.64114L17.7541 7.02052C18.6903 6.16114 20.0216 5.98114 21.1491 6.62677L24.5566 3.78114C24.0835 2.43927 24.6428 1.05239 25.7953 0.379893C26.9785 -0.310732 28.481 -0.035107 29.356 1.00677C30.2335 2.05114 30.2316 3.58614 29.3522 4.62489C28.471 5.66552 26.9778 5.94177 25.7685 5.23677L22.3629 8.07302C22.7416 9.20677 22.4466 10.3968 21.5597 11.1718C20.6916 11.9305 19.4266 12.0961 18.3641 11.5161C17.381 10.9793 16.786 9.88739 16.9172 8.70614L14.1722 7.34239C13.0097 8.42489 11.2516 8.37989 10.1522 7.20802L7.54972 8.27989L7.54847 8.28052Z" fill="var(--fill-0, white)"/>
<path id="Vector_3" d="M29.1431 25.9374L25.3268 25.9311C24.8831 25.9305 24.3962 25.5786 24.3962 25.0761L24.3925 10.2486C24.3925 9.69552 24.8856 9.35614 25.3837 9.35677L29.0693 9.36177C29.5987 9.36239 30.0093 9.75927 30.01 10.3099L30.0112 24.9486C30.0112 25.4811 29.675 25.8518 29.1431 25.9368V25.9374Z" fill="var(--fill-0, white)"/>
<path id="Vector_4" d="M14.1259 25.9274L10.3547 25.9324C9.90844 25.9324 9.42344 25.5768 9.42344 25.0787L9.41406 12.8049C9.41406 12.2224 9.86531 11.8518 10.4153 11.8518H14.0384C14.5403 11.8524 15.0297 12.1887 15.0297 12.7431L15.0259 25.0787C15.0259 25.5487 14.5784 25.9274 14.1266 25.9281L14.1259 25.9274Z" fill="var(--fill-0, white)"/>
<path id="Vector_5" d="M6.63703 25.9381L2.81953 25.9368C2.34016 25.8818 1.93016 25.5356 1.92953 25.0187L1.92578 15.9224C1.92578 15.3787 2.33953 14.9774 2.86641 14.9768L6.55203 14.9718C7.05328 14.9712 7.54078 15.3124 7.54078 15.8612L7.54391 25.0187C7.54391 25.5324 7.13828 25.8887 6.63641 25.9393L6.63703 25.9381Z" fill="var(--fill-0, white)"/>
<path id="Vector_6" d="M21.66 25.9374L17.8418 25.9324C17.3925 25.9324 16.9131 25.5761 16.9131 25.0818L16.9081 16.483C16.9081 15.9343 17.3968 15.5949 17.8987 15.5949H21.5212C22.0731 15.5943 22.5218 15.9668 22.5218 16.5449L22.5187 25.018C22.5187 25.5149 22.1456 25.8561 21.66 25.9374Z" fill="var(--fill-0, white)"/>
</g>
</svg>
