<svg preserveAspectRatio="none" width="100%" height="100%" overflow="visible" style="display: block;" viewBox="0 0 32 29.773" fill="none" xmlns="http://www.w3.org/2000/svg">
<g id="Group">
<path id="Vector" d="M25.5036 0L30.2412 2.41106C30.819 2.70527 31.0303 3.38481 30.7403 3.96462L28.452 8.54061C28.1613 9.12113 27.4718 9.31487 26.9291 9.05009C26.3878 8.78602 26.11 8.11078 26.3914 7.53887L27.5005 5.28639L2.63309 12.5547C1.96795 12.7492 1.34576 12.3682 1.18037 11.7589C1.01498 11.1497 1.32858 10.534 1.96866 10.3467L26.526 3.15878L24.532 2.11327C24.0989 1.88579 23.9456 1.41219 24.0151 0.917064C24.0709 0.518808 24.4075 0.227472 24.7884 0.000717577H25.5029L25.5036 0Z" fill="var(--fill-0, white)"/>
<path id="Vector_2" d="M0 28.9922V23.4088C0.0665861 23.3772 0.068018 23.3212 0.0966572 23.2122C0.463239 21.8294 1.66322 20.7107 3.13814 20.6361C4.11616 20.5865 5.02403 20.5751 6.01279 20.6361C7.67458 20.7387 9.12229 22.1516 9.1273 23.8278L9.14234 28.7124C9.14377 29.2685 8.63256 29.773 8.07267 29.773L1.00667 29.7694C0.504049 29.7694 0.245581 29.336 0.000715979 28.9915L0 28.9922Z" fill="var(--fill-0, white)"/>
<path id="Vector_3" d="M30.9733 29.7672L23.8622 29.7658C23.3961 29.7658 22.8627 29.2735 22.8634 28.7748L22.8913 14.6041C22.8949 12.9121 24.4536 11.5487 26.0509 11.4747C27.0354 11.4288 27.833 11.431 28.8103 11.474C30.4592 11.5472 31.98 12.953 31.9821 14.6759L32 28.7684C32 29.2728 31.4845 29.7687 30.9733 29.7687V29.7672Z" fill="var(--fill-0, white)"/>
<path id="Vector_4" d="M19.5422 29.7666L12.434 29.7651C11.9614 29.7651 11.438 29.2585 11.4395 28.772L11.4574 19.2541C11.4602 17.5347 12.9666 16.1326 14.6299 16.0551C15.5921 16.0099 16.4184 16.0113 17.3756 16.0551C19.084 16.1312 20.556 17.5792 20.5589 19.3258L20.5725 28.706C20.5732 29.2241 20.0992 29.7673 19.5429 29.7673L19.5422 29.7666Z" fill="var(--fill-0, white)"/>
</g>
</svg>
