<svg preserveAspectRatio="none" width="100%" height="100%" overflow="visible" style="display: block;" viewBox="0 0 31.9363 31.9227" fill="none" xmlns="http://www.w3.org/2000/svg">
<g id="Group">
<path id="Vector" d="M31.9363 15.7453V17.1613C31.1701 25.123 24.9707 31.4231 16.8077 31.8978C13.4605 32.0924 10.0907 31.1399 7.21294 29.271L6.2597 30.3053C5.95322 30.6381 5.51229 30.7425 5.04581 30.596C4.69426 30.4856 4.35848 30.1326 4.28637 29.6698L3.69144 25.8561C3.58477 25.1703 4.11435 24.5619 4.80468 24.5604L8.77764 24.5536C9.25238 24.5528 9.6475 24.7767 9.84355 25.1373C10.0712 25.5549 10.0411 26.0755 9.72562 26.4315L8.75886 27.526C13.8796 30.7598 20.529 30.1851 25.0473 26.1543C27.9701 23.5463 29.6385 19.8347 29.634 15.8956C29.634 15.2856 30.1853 14.862 30.6871 14.8191C31.3121 14.7651 31.7335 15.1857 31.9356 15.7446L31.9363 15.7453Z" fill="var(--fill-0, white)"/>
<path id="Vector_2" d="M15.074 0C15.0687 0.0578404 15.1423 0.0766197 15.2204 0.0766197H16.6514C16.7288 0.0766197 16.8039 0.0570892 16.7979 0H17.0225C19.7921 0.301972 22.3956 1.0877 24.7303 2.66441L25.6888 1.61953C25.978 1.30404 26.3859 1.19512 26.8336 1.30854C27.1273 1.38366 27.5382 1.65859 27.6073 2.07249L28.242 5.87268C28.3074 6.26404 28.3044 6.60657 28.0475 6.92732C27.8529 7.1707 27.5352 7.36601 27.1378 7.36676L23.1693 7.37052C22.6736 7.37052 22.2627 7.12188 22.0786 6.73728C21.8803 6.32263 21.9186 5.83211 22.2199 5.49258L23.1919 4.39662C18.0148 1.13202 11.2933 1.75174 6.77498 5.88244C3.94982 8.46498 2.31902 12.1022 2.31902 15.9572C2.31902 16.5777 1.84503 17.0276 1.31545 17.0937C0.736298 17.1666 0.193199 16.806 0.0579882 16.2186C-0.0599461 15.7078 0.0324483 15.2105 0.0707581 14.7313C0.714514 6.74629 6.9778 0.743662 14.7742 0H15.074Z" fill="var(--fill-0, white)"/>
<path id="Vector_3" d="M16.7965 0C16.8025 0.0578404 16.7281 0.0766197 16.65 0.0766197H15.219C15.1416 0.0766197 15.0673 0.0578404 15.0725 0H16.7965Z" fill="var(--fill-0, white)"/>
<path id="Vector_4" d="M15.5244 8.80905C19.5229 8.55515 22.8814 11.6139 23.1285 15.511C23.3786 19.4584 20.3642 22.8688 16.4228 23.1152C12.5046 23.3608 9.09958 20.3891 8.82089 16.4688C8.54221 12.5491 11.5033 9.0637 15.5244 8.8083V8.80905ZM12.0547 15.5118L14.8641 19.3112C15.0917 19.6192 15.4192 19.7642 15.773 19.7484C16.1268 19.7326 16.4213 19.5614 16.6354 19.2398L20.4243 13.5437C20.6436 13.2139 20.4468 12.7572 20.1591 12.5792C19.8909 12.4132 19.471 12.4064 19.2164 12.7069L15.6183 16.9435L12.9471 14.4954C12.6782 14.249 12.2462 14.3467 12.0337 14.5923C11.8211 14.838 11.8121 15.1843 12.0547 15.5133V15.5118Z" fill="var(--fill-0, white)"/>
</g>
</svg>
