<svg preserveAspectRatio="none" width="100%" height="100%" overflow="visible" style="display: block;" viewBox="0 0 28.6861 31.9464" fill="none" xmlns="http://www.w3.org/2000/svg">
<g id="Group">
<path id="Vector" d="M15.2803 0L15.4684 0.248125L15.8434 1.36875C15.8884 1.50312 15.9916 1.6125 16.1341 1.6525C16.7591 1.8275 17.3378 2.06125 17.8997 2.38687C18.0203 2.45687 18.1778 2.4475 18.2997 2.38562L19.3303 1.865C19.4928 1.78313 19.6859 1.83 19.8122 1.95563L20.8134 2.95187C20.9578 3.095 20.9991 3.275 20.9366 3.47563L20.4484 4.42688C20.3622 4.59438 20.3428 4.78375 20.4403 4.95375C20.7434 5.48438 20.9691 6.03 21.1316 6.62C21.1759 6.78187 21.2759 6.90687 21.4359 6.95875L22.4647 7.2925C22.6634 7.35688 22.8103 7.515 22.8103 7.73562V9.16813C22.8103 9.39125 22.6659 9.55125 22.4641 9.61687L21.4328 9.9525C21.2772 10.0031 21.1759 10.1269 21.1328 10.2844C20.9703 10.875 20.7459 11.4212 20.4416 11.9519C20.3434 12.1225 20.3616 12.3113 20.4472 12.4788L20.9334 13.4269C21.0009 13.6275 20.9603 13.8125 20.8153 13.9569L19.8191 14.9487C19.6891 15.0781 19.4922 15.1269 19.3228 15.0406L18.3003 14.5206C18.1528 14.4456 17.9941 14.465 17.8547 14.545C17.3216 14.8513 16.7703 15.0763 16.1766 15.2413C16.0203 15.285 15.8959 15.3806 15.8447 15.5369L15.4897 16.615C15.4334 16.7862 15.2878 16.9081 15.0972 16.9081H13.5941C13.4272 16.9081 13.2741 16.8094 13.2228 16.655L12.8678 15.585C12.8091 15.4081 12.6953 15.2856 12.5109 15.2362C11.9191 15.0775 11.3716 14.8481 10.8397 14.5425C10.6997 14.4619 10.5384 14.4469 10.3934 14.5212L9.41156 15.0238C9.22781 15.1181 9.02094 15.095 8.87469 14.9475L7.81969 13.8844C7.70156 13.765 7.72094 13.5831 7.75781 13.4288L8.22719 12.5231C8.32219 12.34 8.36094 12.1387 8.25219 11.9487C7.94844 11.42 7.72531 10.8731 7.56219 10.2837C7.51781 10.1225 7.41531 10.0013 7.25719 9.94938L6.18094 9.595C5.99969 9.535 5.88281 9.36375 5.88281 9.16875V7.735C5.88281 7.53938 6.00344 7.3725 6.18406 7.31375L7.23094 6.97188C7.40344 6.91563 7.51406 6.79812 7.56219 6.62C7.72281 6.03 7.95031 5.48437 8.25219 4.955C8.34969 4.78437 8.32969 4.5925 8.24344 4.42562L7.75469 3.47625C7.71844 3.32125 7.70156 3.13938 7.81969 3.02063L8.87781 1.95687C9.02031 1.81375 9.22344 1.79188 9.40031 1.88188L10.3897 2.385C10.5341 2.45812 10.6947 2.44687 10.8347 2.36687C11.3691 2.06 11.9172 1.8325 12.5103 1.67062C12.6703 1.62687 12.7941 1.52562 12.8466 1.36812L13.2216 0.24875L13.4084 0H15.2791L15.2803 0ZM13.7847 4.6525C11.6397 4.97375 10.2334 6.96563 10.5403 9.01562C10.8547 11.1156 12.8209 12.5719 14.9053 12.2612C16.9784 11.9525 18.4403 10.0138 18.1559 7.94438C17.8684 5.85625 15.9416 4.32938 13.7847 4.6525Z" fill="var(--fill-0, white)"/>
<path id="Vector_2" d="M1.46484e-05 29.1931V28.195C0.0587646 28.1687 0.0631396 28.1044 0.0818896 28.0219C0.368765 26.7288 1.38376 25.765 2.70314 25.5244L2.70501 21.7731C2.70501 21.4256 2.86376 21.1356 3.25001 21.1231L13.8163 21.1212L13.8263 17.9506C14.1631 17.9062 14.4825 17.93 14.8594 17.9369L14.8769 21.1212L25.3094 21.1225C25.5306 21.1225 25.6931 21.1437 25.8288 21.2869C25.9188 21.3819 25.98 21.5344 25.9806 21.715L25.9881 25.5269C27.6756 25.8206 28.835 27.3575 28.6706 29.0212C28.5063 30.685 27.0975 31.9613 25.4194 31.9456C23.76 31.93 22.36 30.635 22.2325 28.9619C22.1075 27.3319 23.2263 25.8225 24.9225 25.5281L24.9294 22.1706L14.8738 22.1719L14.8706 25.5244C16.5631 25.8181 17.7194 27.3463 17.5588 29.0219C17.3988 30.6875 15.9856 31.9619 14.315 31.9463C12.6513 31.9306 11.2563 30.6375 11.1244 28.9706C10.9925 27.3037 12.1444 25.8175 13.8194 25.5244L13.8156 22.1719H3.76251L3.75876 25.525C5.41689 25.8081 6.55814 27.2756 6.46001 28.91C6.36189 30.5444 5.02439 31.865 3.39376 31.9425C1.75689 32.02 0.310015 30.8556 0.0481396 29.2281C0.0262646 29.2087 0.00751465 29.2 1.46484e-05 29.195L1.46484e-05 29.1931Z" fill="var(--fill-0, white)"/>
</g>
</svg>
