<svg preserveAspectRatio="none" width="100%" height="100%" overflow="visible" style="display: block;" viewBox="0 0 32 32" fill="none" xmlns="http://www.w3.org/2000/svg">
<g id="_&#208;&#161;&#208;&#187;&#208;&#190;&#208;&#185;_1">
<g clip-path="url(#clip0_0_4)">
<g id="Vector">
<path d="M32.0001 30.3013V30.8297C31.7809 31.4193 31.3819 31.821 30.7773 31.9994H30.2469C30.1107 31.8482 29.8513 31.8952 29.677 31.7222L23.4731 25.5388C22.8978 26.3319 21.8268 26.3953 21.1929 25.7294C20.5843 25.0894 20.6809 24.0967 21.4203 23.4874L19.2457 21.3066C17.7485 23.3028 14.9053 23.452 13.2079 21.7464C11.4976 20.028 11.6876 17.2045 13.6593 15.7209L11.3295 13.3903C8.2452 16.0416 7.94766 20.7313 10.6152 23.776C11.1449 24.3806 11.0619 25.2719 10.5131 25.7886C9.94052 26.3279 8.99345 26.3272 8.46784 25.7376C4.73337 21.5503 5.084 15.087 9.26035 11.3253L7.25252 9.30523C2.28843 13.805 1.57694 21.391 5.61098 26.7595C6.09303 27.4009 5.95005 28.3194 5.31618 28.7905C4.6823 29.2617 3.78018 29.1657 3.28452 28.5107C1.06903 25.5885 -0.103399 21.8165 0.0940478 18.1488C0.318048 13.997 2.09439 10.1127 5.18137 7.24497L0.476005 2.52327C-0.113612 1.93161 -0.0251012 1.03561 0.531835 0.493653C1.08877 -0.0483048 1.95822 -0.0993686 2.5349 0.477312L31.5902 29.5292C31.9354 29.8744 31.8557 30.1304 32.0001 30.3013Z" fill="var(--fill-0, white)"/>
<path d="M32.0009 17.9363V18.3442C31.9484 18.3394 31.9314 18.4061 31.9314 18.4769V19.5711C31.9314 19.6412 31.9484 19.7086 32.0009 19.7038V20.0436C31.8 21.2997 31.6591 22.513 31.2546 23.7256C30.983 24.5406 30.1129 24.9368 29.3428 24.6393C28.5285 24.3241 28.2664 23.4996 28.5142 22.6832C29.9256 18.0412 28.6075 13.0444 25.2107 9.67489C21.7908 6.28221 16.7763 5.05123 12.1336 6.49328C11.322 6.74519 10.4989 6.26451 10.2933 5.51149C10.0625 4.66791 10.5282 3.92238 11.3717 3.67115C16.2208 2.2257 21.4245 3.06451 25.5831 6.15285C29.2992 8.91302 31.6216 13.2269 32.0009 17.9377V17.9363Z" fill="var(--fill-0, white)"/>
<path d="M32.0009 19.7025C31.9484 19.7079 31.9314 19.6405 31.9314 19.5697V18.4756C31.9314 18.4054 31.9484 18.338 32.0009 18.3428V19.7025Z" fill="var(--fill-0, white)"/>
<path d="M23.2942 18.3891C22.9796 14.7819 20.1561 11.9775 16.5735 11.6739C15.7714 11.6058 15.2376 10.8419 15.3091 10.1018C15.3813 9.34807 16.0411 8.72237 16.8376 8.78433C21.7534 9.16629 25.6758 13.0512 26.1762 17.9411C26.262 18.7792 25.797 19.5057 24.9622 19.6439C24.2174 19.7671 23.3704 19.2647 23.2942 18.3891Z" fill="var(--fill-0, white)"/>
</g>
</g>
</g>
<defs>
<clipPath id="clip0_0_4">
<rect width="32" height="32" rx="6.66667" fill="white"/>
</clipPath>
</defs>
</svg>
