<svg preserveAspectRatio="none" width="100%" height="100%" overflow="visible" style="display: block;" viewBox="0 0 32 32" fill="none" xmlns="http://www.w3.org/2000/svg">
<g id="_&#208;&#161;&#208;&#187;&#208;&#190;&#208;&#185;_1" clip-path="url(#clip0_0_6)">
<g id="Vector">
<path d="M0.0680851 6.92969H0V11.6854H0.0680851V6.92969Z" fill="var(--fill-0, white)"/>
<path d="M0.0680851 20.3819H0V25.1377H0.0680851V20.3819Z" fill="var(--fill-0, white)"/>
<path d="M11.6171 31.9319H6.86133V32H11.6171V31.9319Z" fill="var(--fill-0, white)"/>
<path d="M25.0702 31.9319H20.3145V32H25.0702V31.9319Z" fill="var(--fill-0, white)"/>
<path d="M25.0702 31.9319H20.3145C19.6234 31.9319 19.1697 31.3655 19.1901 30.7513C19.2105 30.1372 19.7137 29.6395 20.3816 29.6388L25.138 29.6313C27.5619 29.6272 29.5588 27.6296 29.5629 25.2058L29.5711 20.4494C29.5724 19.8026 30.0014 19.3137 30.6359 19.2599C31.1568 19.2164 31.8492 19.6024 31.8485 20.2444L31.841 25.4747C31.8362 29.0941 28.6147 31.9305 25.0702 31.9319Z" fill="var(--fill-0, white)"/>
<path d="M0.0692327 11.6854V6.92969C0.0692327 3.33683 2.94242 0.163388 6.52506 0.157942L11.7567 0.150452C12.3988 0.149771 12.7841 0.842197 12.7406 1.36305C12.6874 1.99896 12.1993 2.42586 11.5511 2.4279L6.72523 2.4422C4.36132 2.44901 2.38413 4.42892 2.37459 6.79147L2.35485 11.6847C2.35213 12.3499 1.81221 12.817 1.19468 12.8102C0.568977 12.8034 0.0565106 12.3105 0.0680851 11.6854L0.0692327 11.6854Z" fill="var(--fill-0, white)"/>
<path d="M29.5758 11.6568L29.569 6.929C29.5655 4.51198 27.6374 2.44968 25.2054 2.44287L20.3829 2.42857C19.7341 2.42653 19.2459 1.99964 19.1928 1.36304C19.1492 0.842189 19.5366 0.149763 20.1759 0.151125L25.4137 0.159295C28.8602 0.164742 31.8362 3.14074 31.8416 6.58789L31.8498 11.8257C31.8505 12.4398 31.1975 12.8306 30.691 12.8116C30.0782 12.7877 29.5778 12.3329 29.5764 11.6582L29.5758 11.6568Z" fill="var(--fill-0, white)"/>
<path d="M11.6183 31.9319H6.86257C3.11653 31.9319 0.0680851 28.8 0.0680851 25.1377V20.3819C0.0680851 19.6922 0.623934 19.2388 1.25032 19.2579C1.84198 19.2756 2.3533 19.7393 2.35534 20.382L2.36896 25.2058C2.37576 27.6296 4.37134 29.6245 6.79517 29.6313L11.6183 29.645C12.2842 29.647 12.7506 30.1896 12.7438 30.8045C12.7363 31.4308 12.244 31.9415 11.6183 31.9319Z" fill="var(--fill-0, white)"/>
<path fill-rule="evenodd" clip-rule="evenodd" d="M16 8C20.4183 8 24 11.5817 24 16C24 20.4183 20.4183 24 16 24C11.5817 24 8 20.4183 8 16C8 11.5817 11.5817 8 16 8ZM14.2988 12.4824C13.8556 12.2608 13.334 12.5835 13.334 13.0791V18.9209C13.334 19.4165 13.8556 19.7392 14.2988 19.5176L20.1416 16.5967C20.633 16.351 20.633 15.649 20.1416 15.4033L14.2988 12.4824Z" fill="var(--fill-0, white)"/>
</g>
</g>
<defs>
<clipPath id="clip0_0_6">
<rect width="32" height="32" fill="white"/>
</clipPath>
</defs>
</svg>
