<svg preserveAspectRatio="none" width="100%" height="100%" overflow="visible" style="display: block;" viewBox="0 0 31.9286 31.9337" fill="none" xmlns="http://www.w3.org/2000/svg">
<g id="Group">
<path id="Vector" d="M31.9278 30.2357V30.764C31.7086 31.3537 31.3096 31.7554 30.705 31.9337H30.1746C30.0385 31.7826 29.7791 31.8296 29.6048 31.6566L23.4008 25.4731C22.8255 26.2663 21.7545 26.3297 21.1207 25.6638C20.512 25.0238 20.6087 24.0311 21.3481 23.4217L19.1734 21.241C17.6762 23.2372 14.833 23.3863 13.1357 21.6808C11.4254 19.9623 11.6153 17.1388 13.5871 15.6553L11.2572 13.3247C8.17293 15.976 7.8754 20.6657 10.543 23.7104C11.0727 24.315 10.9896 25.2063 10.4408 25.723C9.86825 26.2623 8.92119 26.2616 8.39557 25.672C4.6611 21.4847 5.01174 15.0214 9.18808 11.2597L7.18025 9.23961C2.21616 13.7394 1.50468 21.3254 5.53872 26.6939C6.02076 27.3353 5.87778 28.2537 5.24391 28.7249C4.61004 29.196 3.70791 29.1 3.21225 28.4451C0.996761 25.5228 -0.175665 21.7509 0.0217822 18.0832C0.245782 13.9314 2.02212 10.0471 5.1091 7.17936L0.40374 2.45766C-0.185877 1.866 -0.0973668 0.969997 0.459569 0.42804C1.01651 -0.113918 1.88595 -0.164981 2.46263 0.411699L31.518 29.4636C31.8631 29.8088 31.7828 30.0648 31.9271 30.2357H31.9278Z" fill="var(--fill-0, white)"/>
<g id="Vector_2">
<path d="M31.9286 17.8707V18.2786C31.8762 18.2738 31.8591 18.3405 31.8591 18.4113V19.5055C31.8591 19.5756 31.8762 19.643 31.9286 19.6382V19.978C31.7277 21.2341 31.5868 22.4474 31.1824 23.66C30.9107 24.475 30.0406 24.8712 29.2705 24.5737C28.4562 24.2585 28.1941 23.434 28.4419 22.6176C29.8534 17.9756 28.5352 12.9788 25.1385 9.60928C21.7185 6.2166 16.7041 4.98562 12.0614 6.42766C11.2498 6.67958 10.4266 6.1989 10.221 5.44588C9.9902 4.6023 10.4559 3.85677 11.2995 3.60554C16.1485 2.16009 21.3522 2.9989 25.5109 6.08724C29.227 8.84741 31.5494 13.1613 31.9286 17.8721V17.8707Z" fill="white"/>
<path d="M31.9286 19.6369C31.8762 19.6423 31.8591 19.5749 31.8591 19.5041V18.41C31.8591 18.3398 31.8762 18.2724 31.9286 18.2772V19.6369Z" fill="var(--fill-0, white)"/>
</g>
<path id="Vector_3" d="M23.2219 18.3235C22.9073 14.7163 20.0839 11.9119 16.5012 11.6082C15.6992 11.5402 15.1654 10.7762 15.2369 10.0362C15.309 9.28246 15.9688 8.65676 16.7654 8.71872C21.6811 9.10067 25.6035 12.9856 26.1039 17.8755C26.1897 18.7136 25.7247 19.4401 24.89 19.5783C24.1451 19.7015 23.2982 19.1991 23.2219 18.3235Z" fill="var(--fill-0, white)"/>
</g>
</svg>
