<svg preserveAspectRatio="none" width="100%" height="100%" overflow="visible" style="display: block;" viewBox="0 0 32 32" fill="none" xmlns="http://www.w3.org/2000/svg">
<g id="_&#208;&#161;&#208;&#187;&#208;&#190;&#208;&#185;_1" clip-path="url(#clip0_0_8)">
<g id="Vector">
<path d="M5.6875 24.0781V7.98438C5.74938 7.95563 5.74813 7.91188 5.7775 7.81C6.10688 6.68375 7.12125 5.7475 8.37 5.74813L21.6987 5.7525C23.1787 5.7525 24.37 7.03938 24.3731 8.47438L24.3838 13.2225L25.4375 13.2344C25.9363 13.24 26.2675 13.7275 26.2525 14.19C26.2369 14.6519 25.8806 15.0894 25.3813 15.0925L24.3806 15.0988V16.965H25.3206C25.8438 16.965 26.2362 17.3825 26.2519 17.8719C26.2675 18.3613 25.9025 18.8319 25.3806 18.8344L24.3813 18.8394L24.3794 23.5244C24.3787 24.9825 23.2106 26.3088 21.6981 26.3088L8.37125 26.3131C7.12062 26.3131 6.1075 25.3775 5.77813 24.2519C5.74813 24.1494 5.75 24.1056 5.68812 24.0769L5.6875 24.0781ZM14.4731 10.4519C11.3325 10.7719 9.12188 13.5919 9.4625 16.6513C9.80125 19.6963 12.5481 21.9213 15.5944 21.6131C18.66 21.3025 20.92 18.5438 20.6075 15.4688C20.2987 12.4356 17.59 10.1344 14.4731 10.4519Z" fill="var(--fill-0, white)"/>
<path d="M21.1966 32H8.87102C8.47414 31.8288 8.20789 31.5332 8.15914 31.0707L7.85352 28.1544L8.50289 28.1882H21.6279C21.8504 28.1882 21.9954 28.1363 22.2141 28.1582L21.8848 31.1832C21.8391 31.6025 21.5354 31.8382 21.1966 32Z" fill="var(--fill-0, white)"/>
<path d="M21.6516 3.87497L8.50469 3.87372L7.85156 3.9081L8.17281 0.933096C8.22156 0.483096 8.56344 0.0637207 9.06094 0.0637207L21.0672 0.0712207C21.5966 0.0712207 21.8653 0.598096 21.9116 1.0381L22.2134 3.90435C22.0203 3.92935 21.9022 3.87497 21.6516 3.87497Z" fill="var(--fill-0, white)"/>
<path d="M16.938 12.8019L11.8187 17.9363C10.928 16.4938 11.1812 14.6269 12.3349 13.4319C13.5024 12.2231 15.3587 11.8813 16.938 12.8019Z" fill="var(--fill-0, white)"/>
<path d="M13.1309 19.2606L18.2502 14.1269C19.1384 15.5725 18.8852 17.4381 17.729 18.6344C16.5727 19.8306 14.7059 20.1806 13.1309 19.2606Z" fill="var(--fill-0, white)"/>
</g>
</g>
<defs>
<clipPath id="clip0_0_8">
<rect width="32" height="32" fill="white"/>
</clipPath>
</defs>
</svg>
