<svg preserveAspectRatio="none" width="100%" height="100%" overflow="visible" style="display: block;" viewBox="0 0 31.8498 31.8496" fill="none" xmlns="http://www.w3.org/2000/svg">
<g id="Group">
<path id="Vector" d="M0.0680851 6.7793H0V11.535H0.0680851V6.7793Z" fill="var(--fill-0, white)"/>
<path id="Vector_2" d="M0.0680851 20.2315H0V24.9873H0.0680851V20.2315Z" fill="var(--fill-0, white)"/>
<path id="Vector_3" d="M11.6171 31.7815H6.86133V31.8496H11.6171V31.7815Z" fill="var(--fill-0, white)"/>
<path id="Vector_4" d="M25.0702 31.7815H20.3145V31.8496H25.0702V31.7815Z" fill="var(--fill-0, white)"/>
<path id="Vector_5" d="M25.0699 31.7815H20.3142C19.6231 31.7815 19.1697 31.2151 19.1901 30.6009C19.2105 29.9868 19.7137 29.4891 20.3816 29.4884L25.138 29.4809C27.5619 29.4769 29.5588 27.4792 29.5629 25.0554L29.5711 20.299C29.5724 19.6522 30.0014 19.1633 30.6359 19.1095C31.1568 19.066 31.8492 19.452 31.8485 20.094L31.841 25.3243C31.8362 28.9438 28.6138 31.7802 25.0693 31.7815H25.0699Z" fill="var(--fill-0, white)"/>
<path id="Vector_6" d="M0.0692327 11.535V6.7793C0.0692327 3.18644 2.94242 0.0129977 6.52506 0.00755089L11.7567 6.15369e-05C12.3988 -0.000619314 12.7841 0.691806 12.7406 1.21266C12.6874 1.84857 12.1993 2.27547 11.5511 2.27751L6.72523 2.29181C4.36132 2.29861 2.38413 4.27853 2.37459 6.64108L2.35485 11.5344C2.35213 12.1996 1.81221 12.6666 1.19468 12.6598C0.568977 12.653 0.0569774 12.1601 0.0685518 11.535H0.0692327Z" fill="var(--fill-0, white)"/>
<path id="Vector_7" d="M29.5758 11.5064L29.569 6.77861C29.5655 4.36159 27.6374 2.29929 25.2054 2.29248L20.3829 2.27818C19.7341 2.27614 19.2459 1.84925 19.1928 1.21265C19.1492 0.691798 19.5366 -0.000627275 20.1759 0.000734427L25.4137 0.00890463C28.8602 0.0143514 31.8362 2.99035 31.8416 6.4375L31.8498 11.6753C31.8505 12.2894 31.1975 12.6802 30.691 12.6612C30.0782 12.6373 29.5778 12.1825 29.5764 11.5078L29.5758 11.5064Z" fill="var(--fill-0, white)"/>
<path id="Vector_8" d="M11.6183 31.7816H6.86257C3.11653 31.7816 0.0683594 28.6496 0.0683594 24.9873V20.2316C0.0683594 19.5419 0.623934 19.0884 1.25032 19.1075C1.84198 19.1252 2.3533 19.5889 2.35534 20.2316L2.36896 25.0554C2.37576 27.4793 4.37134 29.4741 6.79517 29.481L11.6183 29.4946C12.2842 29.4966 12.7506 30.0393 12.7438 30.6541C12.7363 31.2804 12.2447 31.7904 11.619 31.7809L11.6183 31.7816Z" fill="var(--fill-0, white)"/>
</g>
</svg>
