<svg preserveAspectRatio="none" width="100%" height="100%" overflow="visible" style="display: block;" viewBox="0 0 20.5655 31.9363" fill="none" xmlns="http://www.w3.org/2000/svg">
<g id="Group">
<path id="Vector" d="M0 24.0144V7.92066C0.061875 7.89191 0.060625 7.84816 0.09 7.74628C0.419375 6.62003 1.43375 5.68378 2.6825 5.68441L16.0112 5.68878C17.4912 5.68878 18.6825 6.97566 18.6856 8.41066L18.6963 13.1588L19.75 13.1707C20.2488 13.1763 20.58 13.6638 20.565 14.1263C20.5494 14.5882 20.1931 15.0257 19.6938 15.0288L18.6931 15.035V16.9013H19.6331C20.1563 16.9013 20.5487 17.3188 20.5644 17.8082C20.58 18.2975 20.215 18.7682 19.6931 18.7707L18.6938 18.7757L18.6919 23.4607C18.6913 24.9188 17.5231 26.245 16.0106 26.245L2.68375 26.2494C1.43312 26.2494 0.42 25.3138 0.090625 24.1882C0.060625 24.0857 0.0625 24.0419 0.000625 24.0132L0 24.0144ZM8.78563 10.3882C5.645 10.7082 3.43438 13.5282 3.775 16.5875C4.11375 19.6325 6.86062 21.8575 9.90687 21.5494C12.9725 21.2388 15.2325 18.48 14.92 15.405C14.6113 12.3719 11.9025 10.0707 8.78563 10.3882Z" fill="var(--fill-0, white)"/>
<path id="Vector_2" d="M15.5091 31.9363H3.18352C2.78664 31.7651 2.52039 31.4694 2.47164 31.0069L2.16602 28.0907L2.81539 28.1244H15.9404C16.1629 28.1244 16.3079 28.0726 16.5266 28.0944L16.1973 31.1194C16.1516 31.5388 15.8479 31.7744 15.5091 31.9363Z" fill="var(--fill-0, white)"/>
<path id="Vector_3" d="M15.9641 3.81125L2.81719 3.81L2.16406 3.84437L2.48531 0.869375C2.53406 0.419375 2.87594 0 3.37344 0L15.3797 0.0075C15.9091 0.0075 16.1778 0.534375 16.2241 0.974375L16.5259 3.84062C16.3328 3.86562 16.2147 3.81062 15.9641 3.81062V3.81125Z" fill="var(--fill-0, white)"/>
<path id="Vector_4" d="M11.2505 12.7382L6.13116 17.8725C5.24054 16.43 5.49366 14.5632 6.64741 13.3682C7.81491 12.1594 9.67116 11.8175 11.2505 12.7382Z" fill="var(--fill-0, white)"/>
<path id="Vector_5" d="M7.44336 19.1969L12.5627 14.0632C13.4509 15.5088 13.1977 17.3744 12.0415 18.5707C10.8852 19.7669 9.01836 20.1169 7.44336 19.1969Z" fill="var(--fill-0, white)"/>
</g>
</svg>
