<svg preserveAspectRatio="none" width="100%" height="100%" overflow="visible" style="display: block;" viewBox="0 0 263.174 20.4232" fill="none" xmlns="http://www.w3.org/2000/svg">
<g id="Frame 2">
<g id="Vector">
<path fill-rule="evenodd" clip-rule="evenodd" d="M4.13071 5.69515C4.9439 5.69515 5.63778 5.69515 6.46742 5.69515C8.58678 5.69515 11.9086 5.45677 13.6665 6.92217C15.668 8.59063 14.9367 12.3685 15.0718 14.7261C15.1551 16.1791 14.903 17.6248 13.99 18.7688L13.9387 18.823C12.2227 20.6264 8.02851 20.4542 5.74917 20.3817C4.22236 20.3332 1.85654 20.2234 0.702207 19.1145C-0.154922 18.2911 0.0124045 16.6325 0.0145399 15.497L0.0206564 12.1533L0.0228409 0.00227016L4.12874 0L4.13071 5.69515ZM10.3809 9.17803C9.74162 8.59637 7.63269 8.68109 6.72868 8.68109C5.67581 8.7518 4.85717 8.8009 4.13137 8.8009C4.13137 10.6874 4.13137 13.9907 4.13137 16.2927C4.13137 16.8819 4.59692 17.3606 5.17171 17.3673C6.27984 17.38 7.72867 17.3983 8.52431 17.3586C11.2337 17.1346 10.9533 15.831 10.956 13.4282C10.9572 12.3758 11.1713 9.8973 10.3809 9.17803Z" fill="var(--fill-0, white)"/>
<path d="M101.335 5.57767C107.354 5.93757 107.106 8.03751 107.106 13.4532V20.3582C105.829 20.3582 104.437 20.3582 103.049 20.3582V13.4532C103.05 12.3365 103.078 11.1475 103.009 10.0303C103.009 8.8277 101.546 8.61765 100.31 8.6328C99.2162 8.6328 97.7376 8.8277 97.7376 10.0303C97.7131 11.2057 97.7376 12.2772 97.7376 13.4532L97.7234 20.3582H93.6254V13.4532C93.6259 12.7001 93.6254 10.728 93.6254 10.0303C93.6254 8.77898 92.2753 8.6328 90.9917 8.6328C89.7082 8.6328 88.3617 8.92515 88.3617 10.0303C88.307 11.1824 88.3606 12.3088 88.3617 13.4532V20.3582H84.2516V13.4532C84.2535 10.6515 83.5489 6.95958 86.949 6.07188C89.2881 5.46126 93.6851 5.25663 95.8124 6.48551C97.5372 5.69014 99.4744 5.61007 101.335 5.57767Z" fill="var(--fill-0, white)"/>
<path fill-rule="evenodd" clip-rule="evenodd" d="M123.299 7.04913C124.703 8.44341 124.392 11.3373 124.392 13.229V20.3582C121.354 20.3582 117.898 20.372 114.695 20.372C112.713 20.2189 110.779 20.0443 109.901 17.9016C109.386 16.4211 109.424 13.8903 110.588 12.7445C112.15 11.2065 114.749 11.4261 116.728 11.4308L120.287 11.4421L120.285 10.3631C120.272 9.19547 119.803 8.74582 118.701 8.60759C117.519 8.60759 116.521 8.56854 114.973 8.56854L110.462 8.60759C110.474 7.6939 110.48 6.52387 110.462 5.6103C112.385 5.6103 114.382 5.67965 116.349 5.6103C118.701 5.6103 121.545 5.30806 123.299 7.04913ZM120.289 14.0557C118.843 14.0526 116.892 13.9881 115.483 14.0628C114.848 14.1104 114.446 14.1262 113.981 14.616C113.432 15.1946 113.484 16.6765 114.13 17.1318C115.109 17.8207 117.316 17.6403 118.43 17.5845C119.051 17.5195 119.67 17.4323 120.285 17.323C120.285 16.2446 120.272 15.1313 120.289 14.0557Z" fill="var(--fill-0, white)"/>
<path fill-rule="evenodd" clip-rule="evenodd" d="M24.9179 5.58176C32.3327 5.72576 32.3728 7.13572 32.3422 14.3453C28.8002 14.4157 25.1513 14.3499 21.5958 14.3659C21.5983 15.0924 21.5339 16.141 22.0827 16.689C22.6004 17.2058 23.3296 17.426 24.0256 17.437C26.5521 17.4766 29.7501 17.437 32.3422 17.437V20.3582C21.5724 20.3582 20.6205 20.8629 18.6833 19.0601C17.0658 17.5549 17.5095 14.6822 17.5087 12.6385C17.5079 11.0015 17.3497 8.66647 18.4849 7.36746C19.9923 5.64268 22.8318 5.54419 24.9179 5.58176ZM28.3724 11.7337C28.3724 8.88979 28.3335 8.4453 24.953 8.4453C21.5724 8.4453 21.5724 9.15649 21.5724 11.7305L24.953 11.7298L28.3724 11.7337Z" fill="var(--fill-0, white)"/>
<path d="M67.2893 0.00476685L71.3603 0.00535901L71.4261 5.61181C77.5904 5.61181 79.1682 5.6647 80.4944 7.0513C81.8206 8.4379 81.6943 10.0303 81.6943 13.5533L81.6682 20.3582C80.3112 20.3518 78.9474 20.3496 77.5904 20.3582V13.5533C77.5904 8.97388 77.5904 8.97388 71.4261 8.97388L71.3694 20.3582H67.2893V0.00476685Z" fill="var(--fill-0, white)"/>
<path d="M138.682 0.00476654L142.809 0.00488576C142.748 1.04625 142.803 2.76579 142.805 3.88049L142.818 11.1389C143.11 11.1396 143.336 11.1353 143.627 11.1127C144.115 10.5884 144.707 9.84493 145.18 9.28598L148.144 5.7963L152.74 5.79382C151.376 7.27605 150.1 8.92301 148.762 10.4336C148.187 11.0825 147.58 11.7876 147.049 12.4737C148.398 14.1938 149.719 15.9399 151.09 17.6402L153.174 20.3582C151.782 20.3582 150.041 20.3582 148.533 20.3582C146.929 18.5112 145.286 15.9163 143.673 13.9625L142.817 13.969C142.796 16.0133 142.796 18.3167 142.847 20.3582H138.669C138.739 13.6994 138.729 6.66708 138.682 0.00476654Z" fill="var(--fill-0, white)"/>
<path d="M34.8867 9.68646C34.8863 7.50783 36.5703 5.72204 38.696 5.72663C40.921 5.73142 42.873 5.78083 45.2541 5.78083C47.6352 5.78083 49.3423 7.80446 49.3423 9.68646L49.3628 20.3582H45.2541L45.2595 11.5076C45.2599 9.48092 45.2595 8.6328 42.0254 8.6328C38.986 8.6328 38.9846 9.65599 38.986 11.5076L39.0002 20.3582C37.7133 20.3582 36.2048 20.3582 34.8842 20.3582C34.9294 18.8775 34.8884 17.0907 34.8877 15.5947L34.8867 9.68646Z" fill="var(--fill-0, white)"/>
<path d="M57.3485 5.66397C59.1399 5.66397 62.8956 5.66397 64.7737 5.66397L64.772 8.66061C63.2424 8.66061 61.8499 8.64959 60.3681 8.64959C56.8104 8.64959 55.9158 8.64959 55.9158 13.213C55.9158 17.3808 56.858 17.3808 60.6056 17.3808C61.9936 17.4128 64.772 17.4834 64.772 17.4834C64.772 18.0336 64.7754 19.8083 64.772 20.2189C61.2563 20.2189 58.9467 20.2596 57.3485 20.2234C51.8568 20.2234 51.8568 17.3808 51.8568 13.213C51.8568 9.04517 51.8568 5.66397 57.3485 5.66397Z" fill="var(--fill-0, white)"/>
<path d="M132.712 5.64529C134.103 5.6102 135.286 5.57269 136.683 5.68814C136.674 6.70222 136.675 8.05719 136.683 9.07133C133.35 9.07133 131.126 8.87173 131.126 11.4421C131.126 14.8832 131.116 16.9156 131.126 20.3582C129.734 20.3582 128.346 20.3581 127.005 20.3582V13.046C127.005 7.04913 127.43 5.64529 132.712 5.64529Z" fill="var(--fill-0, white)"/>
</g>
<g id="Vector_2">
<path d="M257.706 20.4232C256.934 20.4232 256.205 20.3541 255.518 20.2158C254.845 20.0774 254.221 19.8838 253.646 19.6348C253.085 19.372 252.574 19.0539 252.111 18.6805L252.721 17.3112C253.198 17.657 253.681 17.9543 254.172 18.2033C254.677 18.4384 255.217 18.6182 255.792 18.7427C256.381 18.8534 257.019 18.9087 257.706 18.9087C258.968 18.9087 259.9 18.6805 260.503 18.2241C261.12 17.7538 261.428 17.1383 261.428 16.3776C261.428 15.9765 261.33 15.6307 261.134 15.3402C260.952 15.0498 260.643 14.8008 260.209 14.5934C259.788 14.3859 259.234 14.213 258.547 14.0747L256.36 13.639C255.042 13.3624 254.053 12.9129 253.394 12.2904C252.749 11.6542 252.426 10.8105 252.426 9.75933C252.426 8.88796 252.651 8.12724 253.1 7.47717C253.562 6.8271 254.2 6.32226 255.013 5.96265C255.841 5.60303 256.78 5.42323 257.832 5.42323C258.505 5.42323 259.143 5.49238 259.746 5.6307C260.349 5.76901 260.903 5.97648 261.407 6.2531C261.926 6.5159 262.382 6.84093 262.775 7.22821L262.165 8.55601C261.534 7.98893 260.868 7.5809 260.167 7.33194C259.465 7.06915 258.68 6.93775 257.811 6.93775C257.068 6.93775 256.423 7.0484 255.876 7.2697C255.343 7.491 254.922 7.81604 254.614 8.2448C254.319 8.65974 254.172 9.14384 254.172 9.69709C254.172 10.361 254.375 10.8866 254.782 11.2738C255.203 11.6611 255.883 11.9447 256.822 12.1245L259.01 12.5809C260.426 12.8714 261.471 13.314 262.144 13.9087C262.831 14.4896 263.174 15.2849 263.174 16.2946C263.174 17.0968 262.95 17.816 262.501 18.4523C262.066 19.0747 261.435 19.5588 260.608 19.9046C259.795 20.2503 258.827 20.4232 257.706 20.4232Z" fill="var(--fill-0, white)"/>
<path d="M240.624 20.2365V7.08299H235.24V5.60996H247.754V7.08299H242.37V20.2365H240.624Z" fill="var(--fill-0, white)"/>
<path d="M219.54 20.2365V5.60996H225.409C226.993 5.60996 228.213 5.97649 229.068 6.70955C229.924 7.4426 230.351 8.48686 230.351 9.84232C230.351 10.6999 230.155 11.4468 229.762 12.083C229.384 12.7054 228.823 13.1826 228.08 13.5145C227.337 13.8326 226.446 13.9917 225.409 13.9917L225.619 13.722H226.04C226.586 13.722 227.063 13.8603 227.47 14.1369C227.876 14.4136 228.248 14.8562 228.585 15.4647L231.193 20.2365H229.3L226.734 15.5477C226.523 15.1604 226.285 14.8562 226.019 14.6349C225.766 14.4136 225.472 14.2614 225.135 14.1784C224.813 14.0954 224.42 14.0539 223.957 14.0539H221.265V20.2365H219.54ZM221.265 12.7054H225.156C226.306 12.7054 227.175 12.4703 227.764 12C228.353 11.5159 228.648 10.7967 228.648 9.84232C228.648 8.91563 228.353 8.21715 227.764 7.74689C227.175 7.2628 226.306 7.02075 225.156 7.02075H221.265V12.7054Z" fill="var(--fill-0, white)"/>
<path d="M205.856 20.4232C204.833 20.4232 203.9 20.2503 203.059 19.9046C202.218 19.5449 201.503 19.0401 200.914 18.39C200.325 17.74 199.869 16.9516 199.547 16.0249C199.238 15.0982 199.084 14.0608 199.084 12.9129C199.084 11.751 199.238 10.7137 199.547 9.80082C199.869 8.87413 200.325 8.09266 200.914 7.45642C201.503 6.80635 202.211 6.30843 203.038 5.96265C203.879 5.60303 204.819 5.42323 205.856 5.42323C206.908 5.42323 207.848 5.59612 208.675 5.9419C209.516 6.28768 210.231 6.78561 210.82 7.43568C211.423 8.08574 211.879 8.87413 212.187 9.80082C212.51 10.7137 212.671 11.7441 212.671 12.8921C212.671 14.0539 212.51 15.0982 212.187 16.0249C211.865 16.9516 211.409 17.74 210.82 18.39C210.231 19.0401 209.516 19.5449 208.675 19.9046C207.848 20.2503 206.908 20.4232 205.856 20.4232ZM205.856 18.9087C206.922 18.9087 207.82 18.6736 208.549 18.2033C209.292 17.733 209.86 17.0484 210.252 16.1494C210.645 15.2503 210.841 14.1715 210.841 12.9129C210.841 11.6404 210.645 10.5615 210.252 9.67634C209.86 8.79114 209.292 8.11341 208.549 7.64314C207.82 7.17288 206.922 6.93775 205.856 6.93775C204.819 6.93775 203.928 7.17288 203.185 7.64314C202.456 8.11341 201.895 8.79805 201.503 9.69709C201.11 10.5823 200.914 11.6542 200.914 12.9129C200.914 14.1715 201.11 15.2503 201.503 16.1494C201.895 17.0346 202.456 17.7192 203.185 18.2033C203.928 18.6736 204.819 18.9087 205.856 18.9087Z" fill="var(--fill-0, white)"/>
<path d="M182.699 20.2365V5.60996H188.568C189.633 5.60996 190.531 5.78285 191.26 6.12863C192.003 6.46058 192.564 6.95851 192.942 7.62241C193.321 8.27248 193.51 9.06777 193.51 10.0083C193.51 10.9212 193.321 11.7095 192.942 12.3734C192.564 13.0373 192.003 13.5422 191.26 13.888C190.531 14.2337 189.633 14.4066 188.568 14.4066H184.424V20.2365H182.699ZM184.424 12.9751H188.357C189.493 12.9751 190.348 12.7261 190.923 12.2282C191.512 11.7165 191.807 10.9765 191.807 10.0083C191.807 9.02628 191.512 8.28631 190.923 7.78838C190.348 7.27663 189.493 7.02075 188.357 7.02075H184.424V12.9751Z" fill="var(--fill-0, white)"/>
<path d="M170.769 20.4232C169.998 20.4232 169.269 20.3541 168.581 20.2158C167.908 20.0774 167.284 19.8838 166.71 19.6348C166.149 19.372 165.637 19.0539 165.174 18.6805L165.784 17.3112C166.261 17.657 166.745 17.9543 167.235 18.2033C167.74 18.4384 168.28 18.6182 168.855 18.7427C169.444 18.8534 170.082 18.9087 170.769 18.9087C172.031 18.9087 172.963 18.6805 173.566 18.2241C174.183 17.7538 174.492 17.1383 174.492 16.3776C174.492 15.9765 174.394 15.6307 174.197 15.3402C174.015 15.0498 173.706 14.8008 173.272 14.5934C172.851 14.3859 172.297 14.213 171.61 14.0747L169.423 13.639C168.105 13.3624 167.116 12.9129 166.457 12.2904C165.812 11.6542 165.49 10.8105 165.49 9.75933C165.49 8.88796 165.714 8.12724 166.163 7.47717C166.625 6.8271 167.263 6.32226 168.077 5.96265C168.904 5.60303 169.843 5.42323 170.895 5.42323C171.568 5.42323 172.206 5.49238 172.809 5.6307C173.412 5.76901 173.966 5.97648 174.471 6.2531C174.989 6.5159 175.445 6.84093 175.838 7.22821L175.228 8.55601C174.597 7.98893 173.931 7.5809 173.23 7.33194C172.529 7.06915 171.743 6.93775 170.874 6.93775C170.131 6.93775 169.486 7.0484 168.939 7.2697C168.406 7.491 167.986 7.81604 167.677 8.2448C167.383 8.65974 167.235 9.14384 167.235 9.69709C167.235 10.361 167.439 10.8866 167.845 11.2738C168.266 11.6611 168.946 11.9447 169.886 12.1245L172.073 12.5809C173.489 12.8714 174.534 13.314 175.207 13.9087C175.894 14.4896 176.237 15.2849 176.237 16.2946C176.237 17.0968 176.013 17.816 175.564 18.4523C175.13 19.0747 174.499 19.5588 173.671 19.9046C172.858 20.2503 171.891 20.4232 170.769 20.4232Z" fill="var(--fill-0, white)"/>
</g>
</g>
</svg>
