<svg width="157.5" height="40.5" overflow="visible" style="display: block;" viewBox="0 0 157.5 40.5" fill="none" xmlns="http://www.w3.org/2000/svg">
<g id="Frame 2">
<g id="Vector">
<path fill-rule="evenodd" clip-rule="evenodd" d="M4.24737 5.85599C5.08352 5.85599 5.797 5.85599 6.65007 5.85599C8.82928 5.85599 12.2449 5.61087 14.0525 7.11766C16.1105 8.83324 15.3585 12.7178 15.4974 15.142C15.5831 16.636 15.3238 18.1226 14.3851 19.2988L14.3323 19.3546C12.5679 21.2089 8.25525 21.0319 5.91154 20.9573C4.34161 20.9074 1.90897 20.7945 0.722038 19.6543C-0.159297 18.8076 0.0127548 17.1022 0.0149506 15.9347L0.0212398 12.4965L0.0234859 0.00233427L4.24534 0L4.24737 5.85599ZM10.674 9.43723C10.0167 8.83914 7.84824 8.92625 6.91871 8.92625C5.8361 8.99896 4.99434 9.04944 4.24804 9.04944C4.24804 10.9892 4.24804 14.3858 4.24804 16.7529C4.24804 17.3587 4.72674 17.8509 5.31777 17.8577C6.45719 17.8709 7.94693 17.8897 8.76504 17.8488C11.551 17.6185 11.2626 16.2781 11.2655 13.8075C11.2667 12.7253 11.4868 10.1768 10.674 9.43723Z" fill="var(--fill-0, white)"/>
<path d="M104.196 5.73519C110.386 6.10525 110.131 8.26449 110.131 13.8331V20.9331C108.818 20.9331 107.386 20.9331 105.959 20.9331V13.8331C105.96 12.6849 105.989 11.4623 105.918 10.3135C105.918 9.077 104.414 8.86102 103.142 8.8766C102.018 8.8766 100.498 9.077 100.498 10.3135C100.473 11.5221 100.498 12.6239 100.498 13.8331L100.483 20.9331H96.2694V13.8331C96.27 13.0587 96.2694 11.031 96.2694 10.3135C96.2694 9.0269 94.8813 8.8766 93.5614 8.8766C92.2416 8.8766 90.8571 9.17721 90.8571 10.3135C90.8009 11.4982 90.856 12.6564 90.8571 13.8331V20.9331H86.631V13.8331C86.6329 10.9523 85.9084 7.15612 89.4045 6.24336C91.8097 5.6155 96.3309 5.40508 98.5183 6.66866C100.292 5.85084 102.284 5.76851 104.196 5.73519Z" fill="var(--fill-0, white)"/>
<path fill-rule="evenodd" clip-rule="evenodd" d="M126.781 7.2482C128.225 8.68186 127.905 11.6575 127.905 13.6026V20.9331C124.781 20.9331 121.227 20.9473 117.934 20.9473C115.896 20.7899 113.908 20.6104 113.005 18.4072C112.475 16.8848 112.515 14.2826 113.711 13.1044C115.317 11.523 117.99 11.7488 120.024 11.7536L123.684 11.7653L123.682 10.6558C123.669 9.45516 123.186 8.99282 122.053 8.85068C120.838 8.85068 119.811 8.81053 118.22 8.81053L113.581 8.85068C113.594 7.91119 113.601 6.70811 113.581 5.76874C115.559 5.76874 117.612 5.84005 119.635 5.76874C122.053 5.76874 124.978 5.45796 126.781 7.2482ZM123.686 14.4527C122.199 14.4495 120.193 14.3831 118.745 14.4599C118.091 14.5089 117.678 14.5252 117.2 15.0288C116.636 15.6237 116.689 17.1475 117.353 17.6156C118.359 18.3239 120.629 18.1385 121.775 18.0811C122.413 18.0142 123.05 17.9246 123.682 17.8122C123.682 16.7033 123.669 15.5586 123.686 14.4527Z" fill="var(--fill-0, white)"/>
<path fill-rule="evenodd" clip-rule="evenodd" d="M25.6216 5.73939C33.2458 5.88747 33.287 7.33724 33.2556 14.7504C29.6135 14.8228 25.8616 14.7551 22.2057 14.7716C22.2083 15.5186 22.1421 16.5968 22.7063 17.1603C23.2387 17.6917 23.9884 17.9182 24.7041 17.9294C27.302 17.9702 30.5903 17.9294 33.2556 17.9294V20.9331C22.1816 20.9331 21.2029 21.4521 19.2109 19.5983C17.5478 18.0506 18.004 15.0968 18.0031 12.9955C18.0024 11.3122 17.8397 8.91122 19.0069 7.57553C20.5569 5.80203 23.4766 5.70076 25.6216 5.73939ZM29.1737 12.065C29.1737 9.14085 29.1337 8.68381 25.6577 8.68381C22.1816 8.68381 22.1816 9.41508 22.1816 12.0618L25.6577 12.0611L29.1737 12.065Z" fill="var(--fill-0, white)"/>
<path d="M69.1897 0.00490147L73.3755 0.00551036L73.4433 5.7703C79.7816 5.7703 81.404 5.82468 82.7676 7.25044C84.1313 8.67619 84.0015 10.3135 84.0015 13.9361L83.9746 20.9331C82.5793 20.9265 81.1769 20.9243 79.7816 20.9331V13.9361C79.7816 9.22731 79.7816 9.22731 73.4433 9.22731L73.3849 20.9331H69.1897V0.00490147Z" fill="var(--fill-0, white)"/>
<path d="M142.598 0.00490115L146.842 0.00502374C146.779 1.0758 146.836 2.8439 146.838 3.99008L146.851 11.4535C147.151 11.4542 147.384 11.4497 147.684 11.4265C148.185 10.8874 148.794 10.123 149.28 9.54823L152.327 5.96L157.053 5.95744C155.651 7.48153 154.339 9.17501 152.964 10.7283C152.372 11.3955 151.748 12.1205 151.201 12.8259C152.589 14.5947 153.947 16.39 155.357 18.1384L157.5 20.9331C156.068 20.9331 154.278 20.9331 152.727 20.9331C151.078 19.034 149.39 16.3658 147.731 14.3568L146.85 14.3635C146.828 16.4656 146.829 18.8339 146.881 20.9331H142.585C142.657 14.0863 142.647 6.85536 142.598 0.00490115Z" fill="var(--fill-0, white)"/>
<path d="M35.8719 9.96001C35.8715 7.71985 37.6031 5.88364 39.7888 5.88835C42.0767 5.89328 44.0837 5.94409 46.5321 5.94409C48.9804 5.94409 50.7358 8.02487 50.7358 9.96001L50.7569 20.9331H46.5321L46.5377 11.8326C46.5381 9.74867 46.5377 8.8766 43.2123 8.8766C40.087 8.8766 40.0856 9.92869 40.087 11.8326L40.1016 20.9331C38.7784 20.9331 37.2273 20.9331 35.8694 20.9331C35.9158 19.4107 35.8737 17.5733 35.873 16.0351L35.8719 9.96001Z" fill="var(--fill-0, white)"/>
<path d="M58.968 5.82393C60.8101 5.82393 64.6718 5.82393 66.6029 5.82393L66.6012 8.9052C65.0284 8.9052 63.5966 8.89386 62.073 8.89386C58.4148 8.89386 57.4949 8.89386 57.4949 13.5862C57.4949 17.8717 58.4637 17.8717 62.3172 17.8717C63.7443 17.9045 66.6012 17.9771 66.6012 17.9771C66.6012 18.5429 66.6047 20.3678 66.6012 20.7899C62.9863 20.7899 60.6114 20.8318 58.968 20.7945C53.3213 20.7945 53.3213 17.8717 53.3213 13.5862C53.3213 9.30062 53.3213 5.82393 58.968 5.82393Z" fill="var(--fill-0, white)"/>
<path d="M136.46 5.80472C137.89 5.76864 139.106 5.73007 140.543 5.84878C140.534 6.8915 140.535 8.28474 140.543 9.32751C137.116 9.32751 134.83 9.12227 134.83 11.7653C134.83 15.3035 134.819 17.3933 134.83 20.9331C133.398 20.9331 131.971 20.933 130.592 20.9331V13.4144C130.592 7.2482 131.029 5.80472 136.46 5.80472Z" fill="var(--fill-0, white)"/>
</g>
<g id="Vector_2">
<path d="M108.289 40.5C107.766 40.5 107.271 40.4516 106.805 40.3548C106.348 40.258 105.925 40.1224 105.535 39.9481C105.154 39.7642 104.807 39.5415 104.493 39.2801L104.907 38.3216C105.23 38.5636 105.558 38.7718 105.891 38.9461C106.234 39.1106 106.6 39.2365 106.99 39.3237C107.39 39.4011 107.823 39.4398 108.289 39.4398C109.146 39.4398 109.778 39.2801 110.187 38.9606C110.606 38.6314 110.815 38.2006 110.815 37.668C110.815 37.3873 110.749 37.1452 110.616 36.9419C110.492 36.7386 110.283 36.5643 109.988 36.4191C109.702 36.2739 109.326 36.1528 108.86 36.056L107.376 35.751C106.481 35.5574 105.811 35.2427 105.363 34.8071C104.926 34.3617 104.707 33.7711 104.707 33.0353C104.707 32.4253 104.859 31.8928 105.164 31.4378C105.478 30.9827 105.911 30.6293 106.462 30.3776C107.024 30.1259 107.661 30 108.375 30C108.832 30 109.264 30.0484 109.674 30.1452C110.083 30.242 110.459 30.3873 110.801 30.5809C111.153 30.7649 111.462 30.9924 111.729 31.2635L111.315 32.1929C110.887 31.796 110.435 31.5104 109.959 31.3361C109.483 31.1521 108.951 31.0602 108.361 31.0602C107.856 31.0602 107.419 31.1376 107.048 31.2925C106.686 31.4474 106.401 31.675 106.191 31.9751C105.991 32.2656 105.891 32.6044 105.891 32.9917C105.891 33.4564 106.029 33.8243 106.305 34.0954C106.591 34.3665 107.052 34.565 107.69 34.6909L109.174 35.0104C110.135 35.2137 110.844 35.5235 111.301 35.9398C111.767 36.3465 112 36.9032 112 37.61C112 38.1715 111.848 38.675 111.543 39.1203C111.248 39.556 110.82 39.8949 110.259 40.1369C109.707 40.379 109.05 40.5 108.289 40.5Z" fill="var(--fill-0, white)"/>
<path d="M96.698 40.3693V31.1618H93.0443V30.1307H101.536V31.1618H97.8826V40.3693H96.698Z" fill="var(--fill-0, white)"/>
<path d="M82.3914 40.3693V30.1307H86.3733C87.4485 30.1307 88.2763 30.3873 88.8567 30.9004C89.4371 31.4136 89.7273 32.1445 89.7273 33.0934C89.7273 33.6936 89.5941 34.2165 89.3277 34.6618C89.0708 35.0975 88.6902 35.4315 88.1859 35.6639C87.6816 35.8866 87.0774 35.9979 86.3733 35.9979L86.5161 35.8091H86.8015C87.1726 35.8091 87.4961 35.906 87.772 36.0996C88.0479 36.2932 88.3001 36.603 88.5284 37.0291L90.2982 40.3693H89.0137L87.2725 37.0871C87.1298 36.8161 86.968 36.6031 86.7872 36.4481C86.616 36.2932 86.4162 36.1867 86.1878 36.1286C85.969 36.0705 85.7025 36.0415 85.3886 36.0415H83.5617V40.3693H82.3914ZM83.5617 35.0975H86.2021C86.9823 35.0975 87.5722 34.9329 87.9718 34.6037C88.3715 34.2649 88.5713 33.7614 88.5713 33.0934C88.5713 32.4447 88.3715 31.9557 87.9718 31.6266C87.5722 31.2877 86.9823 31.1183 86.2021 31.1183H83.5617V35.0975Z" fill="var(--fill-0, white)"/>
<path d="M73.1058 40.5C72.4112 40.5 71.7785 40.379 71.2076 40.1369C70.6367 39.8852 70.1515 39.5318 69.7519 39.0768C69.3522 38.6217 69.043 38.0698 68.8242 37.4212C68.6148 36.7725 68.5102 36.0463 68.5102 35.2427C68.5102 34.4295 68.6148 33.7033 68.8242 33.0643C69.043 32.4156 69.3522 31.8686 69.7519 31.4232C70.1515 30.9682 70.632 30.6196 71.1934 30.3776C71.7642 30.1259 72.4017 30 73.1058 30C73.8194 30 74.4569 30.121 75.0183 30.3631C75.5892 30.6051 76.0745 30.9537 76.4741 31.4087C76.8832 31.8638 77.1924 32.4156 77.4018 33.0643C77.6206 33.7033 77.73 34.4246 77.73 35.2282C77.73 36.0415 77.6206 36.7725 77.4018 37.4212C77.1829 38.0698 76.8737 38.6217 76.4741 39.0768C76.0745 39.5318 75.5892 39.8852 75.0183 40.1369C74.4569 40.379 73.8194 40.5 73.1058 40.5ZM73.1058 39.4398C73.829 39.4398 74.4379 39.2752 74.9327 38.9461C75.437 38.6169 75.8223 38.1376 76.0887 37.5083C76.3551 36.879 76.4883 36.1238 76.4883 35.2427C76.4883 34.352 76.3551 33.5968 76.0887 32.9772C75.8223 32.3575 75.437 31.8831 74.9327 31.5539C74.4379 31.2248 73.829 31.0602 73.1058 31.0602C72.4017 31.0602 71.7975 31.2248 71.2933 31.5539C70.7985 31.8831 70.4179 32.3624 70.1515 32.9917C69.8851 33.6113 69.7519 34.3617 69.7519 35.2427C69.7519 36.1238 69.8851 36.879 70.1515 37.5083C70.4179 38.1279 70.7985 38.6072 71.2933 38.9461C71.7975 39.2752 72.4017 39.4398 73.1058 39.4398Z" fill="var(--fill-0, white)"/>
<path d="M57.3921 40.3693V30.1307H61.3741C62.0972 30.1307 62.7061 30.2517 63.2009 30.4938C63.7052 30.7261 64.0858 31.0747 64.3427 31.5394C64.5996 31.9945 64.728 32.5512 64.728 33.2096C64.728 33.8486 64.5996 34.4004 64.3427 34.8652C64.0858 35.3299 63.7052 35.6833 63.2009 35.9253C62.7061 36.1674 62.0972 36.2884 61.3741 36.2884H58.5624V40.3693H57.3921ZM58.5624 35.2863H61.2313C62.002 35.2863 62.5824 35.112 62.9725 34.7635C63.3722 34.4053 63.572 33.8873 63.572 33.2096C63.572 32.5221 63.3722 32.0042 62.9725 31.6556C62.5824 31.2974 62.002 31.1183 61.2313 31.1183H58.5624V35.2863Z" fill="var(--fill-0, white)"/>
<path d="M49.2964 40.5C48.7731 40.5 48.2783 40.4516 47.8121 40.3548C47.3554 40.258 46.932 40.1224 46.5419 39.9481C46.1613 39.7642 45.814 39.5415 45.5 39.2801L45.9139 38.3216C46.2374 38.5636 46.5657 38.7718 46.8987 38.9461C47.2412 39.1106 47.6075 39.2365 47.9976 39.3237C48.3973 39.4011 48.8302 39.4398 49.2964 39.4398C50.1527 39.4398 50.7855 39.2801 51.1946 38.9606C51.6133 38.6314 51.8226 38.2006 51.8226 37.668C51.8226 37.3873 51.756 37.1452 51.6228 36.9419C51.4991 36.7386 51.2898 36.5643 50.9948 36.4191C50.7094 36.2739 50.3335 36.1528 49.8673 36.056L48.383 35.751C47.4886 35.5574 46.8178 35.2427 46.3706 34.8071C45.9329 34.3617 45.7141 33.7711 45.7141 33.0353C45.7141 32.4253 45.8663 31.8928 46.1708 31.4378C46.4848 30.9827 46.9177 30.6293 47.4696 30.3776C48.0309 30.1259 48.6684 30 49.382 30C49.8388 30 50.2717 30.0484 50.6808 30.1452C51.09 30.242 51.4658 30.3873 51.8083 30.5809C52.1604 30.7649 52.4696 30.9924 52.736 31.2635L52.3221 32.1929C51.894 31.796 51.442 31.5104 50.9663 31.3361C50.4905 31.1521 49.9577 31.0602 49.3678 31.0602C48.8635 31.0602 48.4258 31.1376 48.0547 31.2925C47.6932 31.4474 47.4077 31.675 47.1984 31.9751C46.9986 32.2656 46.8987 32.6044 46.8987 32.9917C46.8987 33.4564 47.0366 33.8243 47.3126 34.0954C47.598 34.3665 48.0595 34.565 48.697 34.6909L50.1813 35.0104C51.1423 35.2137 51.8511 35.5235 52.3078 35.9398C52.7741 36.3465 53.0072 36.9032 53.0072 37.61C53.0072 38.1715 52.855 38.675 52.5505 39.1203C52.2555 39.556 51.8274 39.8949 51.266 40.1369C50.7141 40.379 50.0576 40.5 49.2964 40.5Z" fill="var(--fill-0, white)"/>
</g>
</g>
</svg>
